<svg xmlns="http://www.w3.org/2000/svg" viewBox="0 0 519 519"><path d="M543,283.46q0,9.27-.65,18.36a257.36,257.36,0,0,1-19.67,82.49,107.22,107.22,0,0,0-15-1c-41.09,0-56.57,20.05-78.36,35.17-13.17,9.12-28.65,16.46-53.49,16.46-32.94,0-49.42-12.89-65.9-25.8l0,0c-16.48-12.9-33-25.81-65.92-25.81-24.84,0-40.32,7.34-53.49,16.47-21.79,15.11-37.27,35.16-78.36,35.16-21.54,0-36-5.52-48.11-12.95A258.39,258.39,0,0,1,24,283.46c0-4.75.13-9.48.39-14.16,26.24,15.2,40.26,40,85.93,40,41.09,0,56.56-20.05,78.36-35.17,13.17-9.12,28.65-16.46,53.49-16.46,33,0,49.44,12.91,65.92,25.8l0,0c16.48,12.91,33,25.81,65.9,25.81,24.84,0,40.32-7.34,53.49-16.47,21.79-15.11,37.27-35.16,78.36-35.16,15.07,0,26.69,2.7,36.45,6.87Q543,273.89,543,283.46Z" transform="translate(-23.96 -23.96)" style="fill:#067caf"/><path d="M518.91,174.18a257.67,257.67,0,0,1,23.36,90.35c-9.76-4.17-21.38-6.87-36.45-6.87-41.09,0-56.57,20-78.36,35.16C414.29,302,398.81,309.29,374,309.29c-32.94,0-49.42-12.9-65.9-25.81l0,0c-16.48-12.89-33-25.8-65.92-25.8-24.84,0-40.32,7.34-53.49,16.46-21.8,15.12-37.27,35.17-78.36,35.17-45.67,0-59.69-24.79-85.93-40,.14-2.68.32-5.36.54-8a257.73,257.73,0,0,1,28.48-97.93c14.39,10.81,30.53,20.26,58.73,20.26,41.09,0,56.57-20,78.36-35.16C203.63,139.35,219.11,132,244,132c33,0,49.44,12.91,65.92,25.8l0,0c16.48,12.91,33,25.8,65.9,25.8,24.84,0,40.32-7.33,53.49-16.46,19.34-13.42,33.7-30.72,65.44-34.43A257.6,257.6,0,0,1,518.91,174.18Z" transform="translate(-23.96 -23.96)" style="fill:#008dc8"/><path d="M507.64,383.31a107.22,107.22,0,0,1,15,1A259.6,259.6,0,0,1,64,422c12.06,7.43,26.57,12.95,48.11,12.95,41.09,0,56.57-20.05,78.36-35.16,13.17-9.13,28.65-16.47,53.49-16.47,33,0,49.44,12.91,65.92,25.81l0,0c16.48,12.91,33,25.8,65.9,25.8,24.84,0,40.32-7.34,53.49-16.46C451.07,403.36,466.55,383.31,507.64,383.31Z" transform="translate(-23.96 -23.96)" style="fill:#006a95"/><path d="M494.72,132.74c-31.74,3.71-46.1,21-65.44,34.43-13.17,9.13-28.65,16.46-53.49,16.46-32.94,0-49.42-12.89-65.9-25.8l0,0c-16.48-12.89-33-25.8-65.92-25.8-24.84,0-40.32,7.34-53.49,16.46-21.79,15.11-37.27,35.16-78.36,35.16-28.2,0-44.34-9.45-58.73-20.26A255.55,255.55,0,0,1,68,138.87a259.53,259.53,0,0,1,426.76-6.13Z" transform="translate(-23.96 -23.96)" style="fill:#109dda"/></svg>